<?xml version="1.0" standalone="no"?>
<!DOCTYPE svg PUBLIC "-//W3C//DTD SVG 20010904//EN"
 "http://www.w3.org/TR/2001/REC-SVG-20010904/DTD/svg10.dtd">
<svg version="1.0" xmlns="http://www.w3.org/2000/svg"
 width="1280.000000pt" height="1281.000000pt" viewBox="0 0 1280.000000 1281.000000"
 preserveAspectRatio="xMidYMid meet">
<metadata>
Created by potrace 1.16, written by Peter Selinger 2001-2019
</metadata>
<g transform="translate(0.000000,1281.000000) scale(0.100000,-0.100000)"
fill="#000000" stroke="none">
<path d="M4870 9321 c0 -479 -2 -871 -5 -871 -2 0 -109 64 -237 142 -128 77
-359 218 -513 311 -154 94 -323 196 -375 228 -52 31 -98 55 -102 53 -5 -3 -8
-1431 -8 -3175 l0 -3169 2740 0 2740 0 -2 1182 -3 1182 -135 108 c-74 60 -265
214 -424 341 l-288 232 426 3 426 2 -2 867 -3 867 -100 62 c-55 34 -269 164
-475 289 -366 223 -480 292 -1250 760 -709 431 -876 533 -1250 760 -206 125
-476 290 -600 365 -398 243 -526 319 -543 326 -16 6 -17 -54 -17 -865z m925
-506 c116 -71 325 -198 465 -283 140 -85 316 -192 390 -237 147 -90 499 -303
905 -550 448 -272 526 -319 692 -421 l163 -99 0 -317 0 -318 -640 0 -640 0 0
-352 1 -353 637 -511 637 -510 3 -662 2 -662 -2035 0 -2035 0 0 2200 0 2201
28 -16 c15 -8 133 -79 262 -158 l235 -143 3 -1782 2 -1782 925 0 925 0 0 1630
c0 1542 -1 1630 -17 1640 -10 6 -268 163 -573 349 l-555 338 -3 467 c-1 257 1
465 5 463 5 -3 103 -62 218 -132z m-77 -1709 c76 -45 174 -105 219 -132 l82
-49 1 -1082 0 -1083 -225 0 -225 0 0 1215 c0 668 3 1215 6 1215 3 0 67 -38
142 -84z"/>
<path d="M292 8508 l-2 -38 -145 0 -145 0 0 -3825 0 -3825 410 0 410 0 0 -410
0 -410 5990 0 5990 0 0 3000 0 3000 -150 0 -150 0 0 -2850 0 -2850 -5690 0
-5690 0 0 260 0 260 5430 0 5430 0 0 3000 0 3000 -150 0 -150 0 0 -2845 0
-2845 -5280 0 -5280 0 0 3260 0 3260 -150 0 -150 0 0 -3260 0 -3260 -260 0
-260 0 -3 3708 c-1 2039 -3 3690 -5 3670z"/>
</g>
</svg>
