<svg id="svg" version="1.1" xmlns="http://www.w3.org/2000/svg" xmlns:xlink="http://www.w3.org/1999/xlink" width="400" height="400.3125" viewBox="0, 0, 400,400.3125">
    <g id="svgg">
        <path id="path0" d="M374.063 237.969 L 374.063 239.063 369.735 239.063 L 365.407 239.063 365.204 242.392 C 365.092 244.224,365.000 272.560,365.000 305.361 L 365.000 365.000 200.000 365.000 L 35.000 365.000 34.998 318.047 C 34.997 292.223,34.906 269.723,34.795 268.047 L 34.593 265.000 30.283 265.000 L 25.973 265.000 25.854 263.672 C 25.788 262.941,25.710 285.441,25.680 313.672 L 25.625 365.000 17.500 365.000 L 9.375 365.000 9.374 309.297 C 9.374 278.660,9.281 250.324,9.168 246.328 L 8.963 239.063 4.481 239.063 L 0.000 239.063 0.000 306.875 L 0.000 374.688 12.813 374.688 L 25.625 374.688 25.625 387.500 L 25.625 400.313 212.813 400.313 L 400.000 400.313 400.000 332.656 L 400.000 265.000 395.519 265.000 L 391.037 265.000 390.831 272.082 C 390.718 275.977,390.625 304.313,390.625 335.051 L 390.625 390.938 212.813 390.938 L 35.000 390.938 35.000 382.813 L 35.000 374.688 204.688 374.688 L 374.375 374.688 374.375 305.781 C 374.375 267.883,374.305 236.875,374.219 236.875 C 374.133 236.875,374.063 237.367,374.063 237.969 " stroke="none" fill="#533b88" fill-rule="evenodd"></path>
        <path id="path1" d="M0.000 43.594 L 0.000 87.188 4.516 87.188 L 9.033 87.188 9.144 89.141 C 9.205 90.215,9.282 72.707,9.315 50.234 L 9.375 9.375 98.281 9.375 L 187.188 9.375 187.188 4.688 L 187.188 0.000 93.594 0.000 L 0.000 0.000 0.000 43.594 M25.627 66.641 C 25.628 89.199,25.719 108.809,25.828 110.219 L 26.028 112.781 30.514 112.875 L 35.001 112.969 35.000 74.141 L 35.000 35.313 124.063 35.313 L 213.125 35.313 213.125 30.469 L 213.125 25.625 119.375 25.625 L 25.625 25.625 25.627 66.641 " stroke="none" fill="#20bfd5" fill-rule="evenodd"></path>
        <path id="path2" d="M152.188 109.040 C 152.188 124.005,152.123 136.250,152.045 136.250 C 151.966 136.250,143.357 131.057,132.914 124.711 C 122.471 118.364,113.817 113.240,113.682 113.323 C 113.548 113.406,113.438 158.044,113.438 212.518 L 113.438 311.563 199.064 311.563 L 284.690 311.563 284.611 274.622 L 284.531 237.682 271.319 227.044 L 258.106 216.406 271.397 216.325 L 284.688 216.243 284.675 189.137 L 284.662 162.031 218.836 122.031 C 182.632 100.031,152.825 81.986,152.599 81.930 C 152.261 81.847,152.188 86.695,152.188 109.040 M219.633 148.278 L 262.813 174.526 262.813 184.450 L 262.813 194.375 242.813 194.375 L 222.813 194.375 222.827 205.391 L 222.842 216.406 242.749 232.363 L 262.656 248.319 262.737 269.003 L 262.817 289.688 199.221 289.688 L 135.625 289.688 135.625 220.929 L 135.625 152.171 136.484 152.640 C 136.957 152.898,140.648 155.125,144.688 157.591 L 152.031 162.073 152.110 217.755 L 152.189 273.438 181.096 273.438 L 210.002 273.438 209.923 222.455 L 209.844 171.473 192.031 160.636 L 174.219 149.799 174.138 135.192 L 174.056 120.586 175.255 121.309 C 175.914 121.706,195.884 133.842,219.633 148.278 M181.359 179.844 L 188.103 183.906 188.114 217.734 L 188.125 251.563 181.094 251.563 L 174.063 251.563 174.063 213.568 C 174.063 191.670,174.180 175.617,174.339 175.677 C 174.491 175.734,177.650 177.609,181.359 179.844 " stroke="none" fill="#8c54fc" fill-rule="evenodd"></path>
        <path id="path3" d="M9.063 142.813 L 9.063 146.563 4.531 146.563 L 0.000 146.563 0.000 192.813 L 0.000 239.063 4.523 239.063 L 9.047 239.062 9.141 243.984 C 9.193 246.691,9.267 224.191,9.305 193.984 C 9.344 163.777,9.305 139.063,9.219 139.063 C 9.133 139.063,9.063 140.750,9.063 142.813 M25.685 214.720 C 25.652 240.261,25.715 262.023,25.826 263.079 L 26.027 265.000 30.343 265.000 L 34.659 265.000 34.768 267.109 C 34.828 268.270,34.881 246.859,34.886 219.531 C 34.891 192.203,34.840 170.371,34.772 171.016 L 34.650 172.188 30.309 172.188 L 25.967 172.188 25.856 170.234 C 25.795 169.160,25.718 189.179,25.685 214.720 M365.062 215.391 C 365.096 230.902,365.173 242.574,365.232 241.328 L 365.340 239.063 369.658 239.063 L 373.975 239.063 374.173 237.422 C 374.281 236.520,374.371 224.848,374.372 211.484 L 374.375 187.188 369.688 187.188 L 365.000 187.188 365.062 215.391 M390.694 243.672 C 390.733 260.645,390.806 272.387,390.859 269.766 L 390.954 265.000 395.477 265.000 L 400.000 265.000 400.000 238.906 L 400.000 212.813 395.313 212.813 L 390.625 212.813 390.694 243.672 " stroke="none" fill="#3487b4" fill-rule="evenodd"></path>
        <path id="path4" d="M0.000 116.875 L 0.000 146.563 4.482 146.563 L 8.964 146.563 9.169 140.887 C 9.435 133.554,9.437 93.783,9.172 90.048 L 8.969 87.188 4.484 87.188 L 0.000 87.188 0.000 116.875 M25.684 137.843 C 25.652 153.586,25.716 167.754,25.828 169.327 L 26.031 172.188 30.333 172.188 L 34.634 172.188 34.833 169.922 C 34.942 168.676,34.989 155.352,34.937 140.313 L 34.844 112.969 30.406 112.882 L 25.968 112.796 25.856 111.007 C 25.794 110.024,25.717 122.099,25.684 137.843 " stroke="none" fill="#348cbc" fill-rule="evenodd"></path>
    </g>
</svg>