<?xml version="1.0" standalone="no"?>
<!DOCTYPE svg PUBLIC "-//W3C//DTD SVG 20010904//EN"
 "http://www.w3.org/TR/2001/REC-SVG-20010904/DTD/svg10.dtd">
<svg version="1.0" xmlns="http://www.w3.org/2000/svg"
 width="1280.000000pt" height="1024.000000pt" viewBox="0 0 1280.000000 1024.000000"
 preserveAspectRatio="xMidYMid meet">
<metadata>
Created by potrace 1.16, written by Peter Selinger 2001-2019
</metadata>
<g transform="translate(0.000000,1024.000000) scale(0.100000,-0.100000)"
fill="#000000" stroke="none">
<path d="M5990 6266 c0 -174 -2 -316 -4 -316 -3 0 -100 59 -217 130 -117 72
-216 130 -221 130 -4 0 -8 -520 -8 -1155 l0 -1155 1000 0 1000 0 -2 432 -3
432 -149 120 -150 121 152 3 152 3 -2 316 -3 316 -365 222 c-321 195 -1058
643 -1147 697 l-33 20 0 -316z m438 -257 c92 -56 230 -140 307 -187 77 -47
190 -115 250 -152 61 -37 151 -92 200 -122 l90 -55 3 -112 3 -111 -236 0 -235
0 1 -132 0 -133 234 -185 234 -185 0 -237 1 -238 -740 0 -740 0 0 796 c0 437
3 793 8 791 4 -2 46 -28 95 -57 l87 -53 0 -643 0 -644 340 0 340 0 0 593 -1
592 -209 125 -209 125 -1 163 c0 89 3 162 6 162 3 0 80 -46 172 -101z m-66
-597 l48 -27 0 -387 0 -388 -80 0 -80 0 0 436 0 436 33 -21 c17 -12 53 -34 79
-49z"/>
<path d="M4226 5889 c-3 -34 -6 -660 -6 -1390 l0 -1329 150 0 150 0 0 -150 0
-150 2180 0 2180 0 0 1090 0 1090 -60 0 -60 0 0 -1030 0 -1030 -2060 0 -2060
0 0 90 0 90 1970 0 1970 0 0 1090 0 1090 -60 0 -60 0 0 -1030 0 -1030 -1910 0
-1910 0 0 1180 0 1180 -54 0 c-44 0 -55 4 -59 18 -3 9 -5 -522 -6 -1180 l-1
-1198 -90 0 -90 0 0 1308 c0 719 -3 1317 -6 1330 -5 19 -13 22 -54 22 l-47 0
-7 -61z"/>
<path d="M6964 2440 c-33 -13 -64 -59 -64 -95 0 -47 32 -81 102 -106 118 -44
150 -101 88 -159 -37 -34 -81 -44 -124 -26 -37 16 -76 60 -76 87 0 11 -7 19
-16 19 -26 0 -9 -59 27 -96 68 -70 198 -64 258 12 15 19 21 41 21 75 0 65 -30
100 -120 135 -38 15 -77 36 -87 46 -16 18 -16 22 -2 46 30 54 111 51 125 -5 7
-26 34 -32 34 -7 0 60 -95 103 -166 74z"/>
<path d="M9324 2434 c-54 -27 -71 -100 -34 -147 11 -14 51 -37 91 -53 68 -27
109 -61 109 -91 0 -33 -31 -71 -71 -87 -40 -16 -46 -16 -85 -1 -45 17 -74 51
-74 85 0 11 -7 20 -15 20 -21 0 -19 -37 5 -75 52 -84 205 -93 274 -16 12 13
21 41 24 74 6 71 -21 103 -117 142 -88 35 -109 55 -93 90 25 55 114 54 128 -1
7 -28 34 -32 34 -6 0 10 -9 28 -21 41 -40 42 -100 52 -155 25z"/>
<path d="M10798 2440 c-111 -35 -172 -142 -147 -259 12 -57 66 -127 116 -147
67 -29 166 -12 207 35 18 20 18 23 3 38 -15 15 -19 14 -57 -20 -51 -47 -94
-49 -141 -10 -109 92 -81 297 47 337 30 9 71 -9 105 -45 24 -26 32 -29 44 -19
25 21 17 38 -27 64 -49 28 -110 39 -150 26z"/>
<path d="M2090 2230 l0 -210 83 0 c100 0 146 12 178 46 20 21 24 36 24 86 0
55 -3 62 -33 89 -18 16 -39 29 -47 29 -12 0 -12 4 1 28 17 33 18 53 2 87 -18
39 -57 55 -138 55 l-70 0 0 -210z m199 -14 c36 -36 35 -96 -1 -133 -21 -20
-39 -27 -82 -31 l-56 -4 0 102 0 103 57 -6 c42 -4 63 -12 82 -31z"/>
<path d="M2460 2230 l0 -210 135 0 c113 0 135 2 135 15 0 12 -18 15 -105 15
l-105 0 0 85 0 85 65 0 c51 0 65 3 65 15 0 12 -14 15 -65 15 l-65 0 0 80 0 80
105 0 c87 0 105 3 105 15 0 13 -22 15 -135 15 l-135 0 0 -210z"/>
<path d="M2810 2230 l0 -210 30 0 30 0 0 60 0 60 38 0 c45 0 67 -15 160 -108
104 -103 165 -129 236 -102 35 13 36 45 1 36 -38 -10 -94 19 -155 79 -30 29
-72 64 -92 78 l-38 25 33 20 c65 38 87 139 44 203 -36 54 -77 69 -189 69 l-98
0 0 -210z m205 150 c38 -36 50 -88 32 -132 -20 -48 -53 -68 -121 -75 l-56 -6
0 123 0 122 60 -4 c45 -3 66 -10 85 -28z"/>
<path d="M3280 2340 l50 -100 0 -110 0 -110 35 0 35 0 0 109 0 108 50 94 c55
104 57 109 35 109 -9 0 -33 -36 -59 -87 l-44 -88 -43 88 c-41 83 -45 87 -76
87 l-33 0 50 -100z"/>
<path d="M3580 2230 l0 -210 135 0 c113 0 135 2 135 15 0 12 -18 15 -105 15
l-105 0 0 195 0 195 -30 0 -30 0 0 -210z"/>
<path d="M3930 2230 l0 -210 135 0 c113 0 135 2 135 15 0 12 -18 15 -105 15
l-105 0 0 195 0 195 -30 0 -30 0 0 -210z"/>
<path d="M4270 2230 l0 -210 35 0 35 0 0 210 0 210 -35 0 -35 0 0 -210z"/>
<path d="M4420 2281 c0 -147 1 -160 23 -191 67 -98 229 -91 284 13 24 45 33
337 10 337 -12 0 -15 -25 -19 -147 -3 -115 -8 -155 -21 -180 -32 -61 -111 -81
-161 -42 -49 39 -56 66 -56 224 l0 145 -30 0 -30 0 0 -159z"/>
<path d="M4820 2230 c0 -180 2 -210 15 -210 13 0 15 25 16 163 l1 162 55 -162
55 -163 33 0 34 0 49 153 50 152 1 -152 1 -153 30 0 30 0 0 210 0 210 -30 0
c-29 0 -29 0 -87 -181 l-58 -180 -60 180 -59 181 -38 0 -38 0 0 -210z"/>
<path d="M5590 2230 l0 -210 30 0 30 0 0 210 0 210 -30 0 -30 0 0 -210z"/>
<path d="M5730 2230 c0 -179 2 -210 15 -210 12 0 15 29 17 175 l3 175 105
-175 c101 -168 106 -174 138 -175 l32 0 0 210 c0 179 -2 210 -15 210 -12 0
-15 -28 -17 -172 l-3 -172 -103 172 c-101 170 -103 172 -137 172 l-35 0 0
-210z"/>
<path d="M6120 2438 c0 -2 28 -95 63 -208 l62 -205 32 -3 c23 -2 33 1 37 15 3
10 30 100 60 200 31 100 56 186 56 192 0 6 -6 11 -13 11 -9 0 -33 -64 -69
-180 l-54 -181 -54 181 -53 180 -34 0 c-18 0 -33 -1 -33 -2z"/>
<path d="M6510 2230 l0 -210 135 0 c113 0 135 2 135 15 0 12 -18 15 -105 15
l-105 0 0 85 0 85 65 0 c51 0 65 3 65 15 0 12 -14 15 -65 15 l-65 0 0 80 0 80
105 0 c87 0 105 3 105 15 0 13 -22 15 -135 15 l-135 0 0 -210z"/>
<path d="M7260 2425 c0 -12 14 -15 65 -15 l65 0 0 -195 0 -195 30 0 30 0 0
195 0 195 60 0 c47 0 60 3 60 15 0 13 -24 15 -155 15 -131 0 -155 -2 -155 -15z"/>
<path d="M7650 2231 c0 -181 2 -211 15 -211 13 0 15 25 16 158 l1 157 52 -155
53 -155 34 -3 35 -3 51 158 52 158 0 -157 1 -158 30 0 30 0 0 211 0 210 -32
-3 -32 -3 -57 -175 c-32 -101 -59 -169 -63 -160 -3 8 -30 87 -59 175 l-54 160
-36 3 -37 3 0 -210z"/>
<path d="M8100 2230 l0 -210 135 0 c113 0 135 2 135 15 0 12 -18 15 -105 15
l-105 0 0 85 0 85 65 0 c51 0 65 3 65 15 0 12 -14 15 -65 15 l-65 0 0 80 0 80
105 0 c87 0 105 3 105 15 0 13 -22 15 -135 15 l-135 0 0 -210z"/>
<path d="M8450 2230 c0 -179 2 -210 15 -210 12 0 15 28 17 174 l3 173 105
-173 c101 -169 105 -174 137 -174 l33 0 0 210 c0 180 -2 210 -15 210 -13 0
-15 -26 -15 -177 l0 -178 -106 178 c-104 173 -107 177 -140 177 l-34 0 0 -210z"/>
<path d="M8840 2425 c0 -12 13 -15 60 -15 l60 0 0 -195 0 -195 35 0 35 0 0
195 0 195 60 0 c47 0 60 3 60 15 0 13 -24 15 -155 15 -131 0 -155 -2 -155 -15z"/>
<path d="M9950 2230 l0 -210 135 0 c113 0 135 2 135 15 0 12 -18 15 -105 15
l-105 0 0 195 0 195 -30 0 -30 0 0 -210z"/>
<path d="M10300 2230 l0 -210 135 0 c113 0 135 2 135 15 0 12 -18 15 -105 15
l-105 0 0 195 0 195 -30 0 -30 0 0 -210z"/>
<path d="M3817 1646 c-78 -21 -117 -75 -117 -161 0 -52 12 -60 58 -36 l40 20
-13 37 c-7 20 -10 46 -7 56 5 21 40 38 78 38 l24 0 0 -190 0 -190 44 0 44 0
51 128 51 127 0 -128 0 -128 47 3 47 3 78 200 c102 263 96 237 57 233 -33 -3
-34 -5 -84 -133 l-50 -130 -3 133 -3 132 -43 0 -43 0 -49 -127 -49 -128 -3
128 -3 127 -52 -1 c-29 0 -74 -6 -100 -13z"/>
<path d="M4779 1646 c-91 -32 -150 -99 -152 -171 -1 -46 4 -49 46 -29 33 16
36 21 34 57 -1 33 4 44 32 69 18 16 35 28 37 25 2 -2 -12 -82 -31 -177 -19
-95 -35 -180 -35 -188 0 -11 18 -13 94 -10 88 3 97 5 133 34 21 17 51 57 68
90 24 49 29 71 30 136 0 62 -4 82 -21 105 -45 63 -151 89 -235 59z m148 -62
c24 -24 25 -31 20 -87 -7 -78 -21 -125 -50 -168 -23 -35 -71 -68 -82 -57 -12
11 58 338 73 338 7 0 25 -12 39 -26z"/>
<path d="M6670 1651 c-49 -10 -97 -37 -116 -65 -18 -29 -29 -125 -16 -144 8
-11 17 -10 50 7 l41 21 -15 30 c-24 48 -15 73 33 90 23 8 44 12 47 10 2 -3 -5
-48 -16 -100 -22 -107 -19 -157 13 -182 27 -22 106 -24 136 -3 24 17 24 23 3
-72 -19 -86 -73 -109 -100 -43 -15 36 -17 36 -54 4 -25 -22 -27 -28 -17 -48
29 -53 123 -73 181 -39 46 27 66 78 104 263 20 96 41 194 46 217 15 62 14 63
-33 63 l-43 0 -27 -122 c-23 -107 -31 -127 -57 -150 -33 -31 -67 -36 -76 -13
-4 8 6 73 20 143 14 71 26 131 26 135 0 9 -83 7 -130 -2z"/>
<path d="M8058 1646 c-60 -16 -94 -39 -114 -77 -16 -32 -32 -139 -21 -139 4 0
25 7 47 16 39 16 41 18 34 48 -7 34 -7 34 -5 58 1 16 86 57 96 46 3 -3 -12
-89 -33 -191 l-39 -187 47 0 47 0 18 105 18 105 42 0 c36 0 44 4 49 23 9 36 8
37 -34 37 l-41 0 6 38 c13 74 11 72 76 72 55 0 60 2 69 26 6 14 10 27 10 30 0
10 -229 2 -272 -10z"/>
<path d="M5745 1618 c-2 -7 -16 -76 -31 -153 -24 -130 -29 -142 -60 -172 -38
-37 -64 -41 -86 -15 -32 36 -29 49 11 56 74 11 123 97 87 151 -41 62 -141 29
-182 -60 -25 -53 -31 -116 -14 -160 21 -55 127 -69 184 -24 25 19 25 19 51 -7
29 -29 60 -28 106 6 26 19 27 19 44 0 28 -31 76 -35 128 -12 48 21 71 49 92
109 7 21 22 43 33 51 19 12 18 6 -9 -130 -16 -79 -31 -153 -34 -166 -5 -22 -3
-23 42 -20 l48 3 14 75 c7 41 15 76 16 78 1 1 16 -3 33 -9 42 -15 95 3 122 41
33 47 46 127 29 179 -21 67 -48 81 -142 74 -76 -6 -78 -6 -84 -35 -5 -24 -28
-48 -46 -48 -3 0 -10 14 -17 30 -36 88 -167 73 -230 -26 -24 -38 -30 -59 -30
-101 0 -47 -3 -55 -25 -65 -14 -6 -27 -9 -29 -7 -3 2 11 78 30 169 19 91 34
173 34 183 0 13 -9 17 -40 17 -24 0 -42 -5 -45 -12z"/>
<path d="M8634 1599 c-38 -9 -42 -13 -48 -48 -4 -27 -12 -40 -26 -44 -24 -6
-27 -37 -4 -37 12 0 15 -6 11 -22 -3 -13 -11 -53 -18 -91 -12 -63 -40 -110
-56 -94 -6 6 20 182 33 230 5 14 -2 17 -40 17 -44 0 -45 -1 -52 -37 -27 -158
-48 -213 -79 -213 -18 0 -19 -10 9 133 l23 118 -46 -3 -45 -3 -18 -85 c-24
-117 -23 -165 3 -191 24 -24 71 -19 106 13 21 20 21 20 27 0 10 -30 52 -36 95
-15 34 17 37 17 54 1 24 -25 58 -22 99 6 l35 23 21 -24 c18 -20 27 -23 54 -18
35 8 68 26 68 37 0 4 11 -4 26 -18 20 -21 30 -24 52 -18 15 4 52 6 83 5 l56
-2 12 63 c18 93 29 123 56 148 18 17 31 21 53 17 37 -7 97 36 72 53 -34 23
-81 23 -111 1 -23 -17 -29 -19 -29 -6 0 11 -11 15 -44 15 l-43 0 -22 -107
c-14 -72 -28 -114 -41 -127 -11 -11 -23 -17 -26 -13 -7 6 17 164 33 225 5 20
2 22 -39 22 l-45 0 -21 -107 c-21 -103 -40 -143 -69 -143 -16 0 -17 -9 11 130
l23 115 -40 3 c-21 2 -41 1 -44 -2 -3 -3 -14 -46 -24 -95 -10 -50 -26 -102
-35 -116 -14 -22 -50 -42 -59 -33 -2 1 6 49 17 105 18 88 23 102 42 105 29 4
34 38 6 38 -19 0 -21 4 -15 33 4 17 9 40 11 50 6 19 6 19 -52 6z"/>
<path d="M4355 1506 c-83 -36 -127 -154 -91 -241 19 -44 72 -63 131 -46 45 13
61 24 93 65 41 53 19 65 -30 16 -39 -39 -73 -48 -98 -25 -33 30 -25 50 25 63
79 21 114 118 59 161 -31 24 -47 25 -89 7z"/>
<path d="M5127 1498 c-71 -42 -109 -166 -72 -238 29 -56 127 -63 186 -13 l29
25 0 -26 c0 -24 3 -26 45 -26 l45 0 65 136 c36 76 65 141 65 145 0 5 -13 9
-28 9 -25 0 -32 -8 -64 -77 l-36 -78 -1 78 -1 77 -45 0 -45 0 0 -94 c0 -85 -2
-95 -24 -119 -33 -36 -71 -44 -96 -22 -24 22 -26 55 -4 55 31 0 85 33 99 61
23 44 19 84 -11 108 -34 27 -59 26 -107 -1z"/>
<path d="M7088 1511 c-76 -25 -128 -100 -128 -185 0 -39 5 -53 29 -76 39 -39
72 -46 126 -25 53 20 91 61 105 115 6 22 19 44 28 49 17 9 17 5 8 -50 -18
-107 23 -152 101 -112 39 20 39 20 63 1 17 -14 31 -17 49 -12 14 4 52 6 83 5
l56 -2 12 58 c6 32 13 70 16 85 3 15 18 41 34 58 23 25 36 30 64 28 23 -1 42
4 55 17 29 25 27 32 -14 45 -38 12 -70 7 -97 -18 -16 -14 -18 -13 -18 1 0 13
-10 17 -43 17 l-43 0 -19 -97 c-10 -54 -22 -108 -28 -120 -10 -22 -35 -38 -45
-29 -4 5 11 97 34 214 l7 32 -46 0 -45 0 -18 -101 c-10 -61 -25 -110 -36 -125
-23 -28 -52 -33 -44 -6 3 9 12 58 21 107 9 50 19 98 21 108 5 14 -2 17 -40 17
-41 0 -46 -2 -52 -27 -4 -16 -11 -34 -17 -40 -13 -18 -37 -16 -37 1 0 8 -10
27 -22 41 -25 28 -76 39 -120 26z"/>
<path d="M9320 1503 c-88 -46 -128 -196 -68 -260 44 -48 139 -36 195 24 59 61
37 88 -23 28 -39 -40 -65 -44 -94 -15 -26 26 -26 50 0 50 29 0 76 26 94 52 19
27 21 88 4 111 -20 26 -68 30 -108 10z"/>
</g>
</svg>
