<?xml version="1.0" standalone="no"?>
<!DOCTYPE svg PUBLIC "-//W3C//DTD SVG 20010904//EN"
 "http://www.w3.org/TR/2001/REC-SVG-20010904/DTD/svg10.dtd">
<svg version="1.0" xmlns="http://www.w3.org/2000/svg"
 width="1280.000000pt" height="1281.000000pt" viewBox="0 0 1280.000000 1281.000000"
 preserveAspectRatio="xMidYMid meet">

<g transform="translate(0.000000,1281.000000) scale(0.100000,-0.100000)"
fill="#000000" stroke="none">
<path d="M4878 9306 l-3 -876 -605 368 c-333 202 -611 371 -617 375 -10 7 -13
-627 -13 -3157 l0 -3166 2730 0 2730 0 0 1173 0 1173 -430 344 c-236 190 -429
348 -430 353 0 4 194 7 430 7 l430 0 0 859 0 858 -2062 1254 c-1134 690 -2083
1267 -2110 1282 l-48 29 -2 -876z m2117 -1209 l1420 -863 3 -327 2 -327 -640
0 -640 0 0 -344 0 -344 640 -513 640 -514 0 -667 0 -668 -2045 0 -2045 0 0
2215 0 2215 275 -167 275 -166 0 -1779 0 -1778 920 0 920 0 0 1619 0 1619
-580 353 -580 353 0 473 c0 260 3 473 8 473 4 0 646 -389 1427 -863z m-1192
-1031 l227 -138 0 -1089 0 -1089 -232 2 -233 3 -3 1228 c-1 676 1 1226 5 1224
5 -2 110 -66 236 -141z"/>
<path d="M0 4650 l0 -3820 413 -2 412 -3 3 -407 2 -408 5985 0 5985 0 0 2990
0 2990 -145 0 -145 0 0 -2845 0 -2845 -5700 0 -5700 0 0 265 0 265 5430 0
5430 0 0 2990 0 2990 -140 0 -140 0 0 -2845 0 -2845 -5290 0 -5290 0 0 3265 0
3265 -140 0 -140 0 0 -3265 0 -3265 -270 0 -270 0 0 3675 0 3675 -145 0 -145
0 0 -3820z"/>
</g>
</svg>
